<svg width="34" height="34" viewBox="0 0 34 34" fill="none" xmlns="http://www.w3.org/2000/svg">
  <!-- Background: soft pink/rose pastel, matching the warm palette of the other icons -->
  <rect width="34" height="34" rx="6" fill="#FFDDE6"/>

  <!-- Heart shape: organic, slightly asymmetric paths matching the illustration style -->
  <!-- Outer heart fill -->
  <path d="M17.0039 26.5371C16.8574 26.4414 16.6621 26.3262 16.4316 26.1816C15.4492 25.5566 13.9746 24.6074 12.5078 23.4082C10.9883 22.1621 9.47852 20.6953 8.38477 19.1035C7.28418 17.501 6.625 15.7686 6.625 13.9756C6.625 11.0225 9.02344 8.625 11.9785 8.625C13.6426 8.625 15.1289 9.40039 16.1367 10.6035L17.0039 11.6992L17.8711 10.6035C18.8789 9.40039 20.3652 8.625 22.0293 8.625C24.9844 8.625 27.3828 11.0225 27.3828 13.9756C27.3828 15.7686 26.7227 17.501 25.623 19.1035C24.5293 20.6953 23.0195 22.1621 21.5 23.4082C20.0332 24.6074 18.5586 25.5566 17.5762 26.1816C17.3457 26.3262 17.1504 26.4414 17.0039 26.5371Z" fill="#102F32"/>

  <!-- Inner highlight — soft teardrop-shaped, like the water droplet highlight in the "risk" icon -->
  <path d="M11.8965 11.2246C11.6592 11.2246 11.4668 11.4170 11.4668 11.6543C11.4668 11.8916 11.6592 12.084 11.8965 12.084C13.3477 12.084 14.5273 13.1562 14.6680 14.5723C14.6914 14.7949 14.8779 14.9590 15.1025 14.9424C15.3271 14.9180 15.4912 14.7168 15.4678 14.4922C15.2842 12.6621 13.7480 11.2246 11.8965 11.2246Z" fill="#FFDDE6"/>
</svg>
